PathFileType	4	(X/Y/Z)	C:/Users/opensim2020/Desktop/walking_exp_matlab/subject02_walking09_straight_01.trc																																																																																																																												
DataRate	CameraRate	NumFrames	NumMarkers	Units	OrigDataRate	OrigDataStartFrame	OrigNumFrames																																																																																																																								
100	100	4	42	mm	100	672	293																																																																																																																								
Frame#	Time	LFHD			RFHD			LBHD			RBHD			C7			T10			CLAV			STRN			RBAK			LSHO			LUPA			LELB			LFRM			LWRA			LWRB			LFIN			RSHO			RUPA			RELB			RFRM			RWRA			RWRB			RFIN			LASI			RASI			LPSI			RPSI			LTHI			LKNE			LTIB			LANK			LHEE			LTOE			RTHI			RKNE			RTIB			RANK			RHEE			RTOE			*39			*40			*41		
		X1	Y1	Z1	X2	Y2	Z2	X3	Y3	Z3	X4	Y4	Z4	X5	Y5	Z5	X6	Y6	Z6	X7	Y7	Z7	X8	Y8	Z8	X9	Y9	Z9	X10	Y10	Z10	X11	Y11	Z11	X12	Y12	Z12	X13	Y13	Z13	X14	Y14	Z14	X15	Y15	Z15	X16	Y16	Z16	X17	Y17	Z17	X18	Y18	Z18	X19	Y19	Z19	X20	Y20	Z20	X21	Y21	Z21	X22	Y22	Z22	X23	Y23	Z23	X24	Y24	Z24	X25	Y25	Z25	X26	Y26	Z26	X27	Y27	Z27	X28	Y28	Z28	X29	Y29	Z29	X30	Y30	Z30	X31	Y31	Z31	X32	Y32	Z32	X33	Y33	Z33	X34	Y34	Z34	X35	Y35	Z35	X36	Y36	Z36	X37	Y37	Z37	X38	Y38	Z38	X39	Y39	Z39	X40	Y40	Z40	X41	Y41	Z41	X42	Y42	Z42
																																																																																																																															
147	1.46	-126.8098	1746.15479	-1028.27942	-148.62964	1718.55811	-887.97076	-233.32867	1644.81262	-1063.1748	-265.33392	1613.43408	-927.04297	-279.74454	1508.78882	-997.33307	-327.15601	1234.26941	-993.46881	-137.53209	1446.0249	-1004.17297	-81.61006	1274.08484	-1002.64233	-335.52951	1332.78516	-940.67407	-198.97673	1494.1842	-1174.03003	-184.70409	1299.1189	-1264.77185	-156.32886	1160.03845	-1285.45239	-95.28932	1040.57739	-1294.10657	4.83651	951.20898	-1255.22339	-35.75037	932.13153	-1290.26917	10.20924	883.94299	-1289.59314	-207.89746	1468.58032	-808.78534	-250.60289	1278.76953	-733.09351	-249.4649	1132.23755	-721.38361	-234.55489	1013.86853	-700.19104	-197.59901	882.50989	-715.68256	-246.85135	884.70111	-686.94348	-218.60664	817.16089	-683.45575	-104.77439	966.42767	-1132.34668	-78.87393	975.09875	-882.0921	-305.3403	1014.76819	-1038.93347	-300.55484	1019.5885	-922.57605	-217.06889	660.9209	-1192.14978	-269.76987	477.11716	-1180.047	-419.18857	359.0864	-1173.8811	-543.87408	173.37418	-1151.5166	-577.11243	172.11339	-1093.78125	-468.23776	36.3349	-1172.59131	-93.44031	674.56628	-800.81531	-52.99113	469.66937	-844.04956	-73.46311	281.39886	-839.47607	-73.47839	89.94424	-875.32111	-103.90263	37.25175	-932.84064	80.88349	38.46222	-857.55524	-255.13945	1781.04382	-957.07935	2845.18359	1034.10461	-3360.26392	NaN	NaN	NaN
148	1.47	-118.02962	1747.76855	-1025.80627	-139.99936	1720.3689	-885.45355	-224.68024	1646.55676	-1060.71582	-257.18747	1614.92786	-924.70453	-270.98459	1510.16663	-994.73883	-317.94806	1235.6969	-990.57147	-128.64705	1447.96057	-1001.97748	-72.28188	1276.13135	-1000.3468	-325.71149	1334.09412	-937.91895	-190.92041	1495.87244	-1171.63074	-178.12903	1300.52124	-1262.20178	-151.98007	1160.88147	-1282.0592	-93.40257	1040.30652	-1292.08093	5.05421	948.4762	-1253.45911	-36.0115	930.63788	-1288.66406	8.64088	881.04077	-1287.81775	-198.85754	1470.77368	-806.50757	-239.77943	1280.5	-730.31104	-237.2403	1134.10388	-718.57214	-220.99219	1015.88031	-697.39014	-183.30424	884.84473	-712.79492	-232.31252	886.65558	-683.83124	-203.67821	819.11194	-680.17267	-95.55624	968.02319	-1128.85022	-69.47047	976.5528	-879.42621	-296.30072	1016.7099	-1036.30847	-290.8511	1021.521	-919.78772	-202.87877	660.6225	-1190.36401	-251.65749	477.27963	-1179.37512	-401.66132	361.64621	-1172.81812	-530.20618	179.90811	-1149.38782	-562.54572	179.19868	-1090.71606	-459.96964	40.91316	-1172.59326	-86.74442	675.34296	-799.534	-49.20298	469.84305	-842.73291	-71.52428	281.52927	-838.19495	-72.97198	89.98655	-875.11639	-103.99319	37.2754	-932.73395	80.92446	38.36895	-857.59583	-246.44966	1782.60022	-954.67737	2845.14502	1034.06421	-3360.38721	NaN	NaN	NaN
149	1.48	-109.40943	1749.42444	-1023.4978	-131.07259	1721.76819	-882.94971	-216.04552	1648.23499	-1058.57056	-248.51758	1616.70642	-922.50623	-262.24969	1511.60486	-992.21045	-308.83826	1237.12683	-987.81647	-119.85306	1449.82434	-999.85547	-63.08071	1278.08228	-998.29065	-316.3443	1335.45093	-935.03058	-182.97861	1497.50098	-1169.2345	-171.68039	1301.84497	-1259.66345	-147.82347	1161.98657	-1278.89063	-91.79047	1040.03528	-1289.67017	4.80476	945.64185	-1251.45276	-36.60167	929.23663	-1287.29126	6.87768	878.23737	-1286.31531	-189.56813	1472.63757	-804.33179	-228.44508	1282.44873	-727.7843	-225.15218	1135.94177	-715.76727	-207.52731	1017.7749	-694.54474	-167.94293	887.12744	-709.69037	-217.59012	888.47571	-680.70026	-188.06854	821.46436	-677.03375	-86.69126	969.82806	-1126.1532	-60.3787	977.76648	-877.16382	-287.49799	1018.52338	-1033.60571	-281.43246	1023.56525	-916.95587	-188.80244	660.78564	-1188.89795	-233.38014	477.52725	-1178.62354	-383.87653	364.0007	-1171.89844	-516.33392	186.14233	-1145.97351	-547.65216	185.69763	-1087.10437	-448.32077	46.77999	-1173.60022	-80.53149	676.00653	-798.25067	-45.42749	469.85422	-841.53998	-69.48083	281.6936	-836.80731	-72.99314	90.08208	-874.98102	-103.76935	37.07224	-932.51971	80.89199	38.32612	-857.59686	-237.73138	1784.08911	-952.15173	NaN	NaN	NaN	NaN	NaN	NaN
150	1.49	-100.84332	1751.04443	-1021.3634	-122.49469	1723.36194	-880.77045	-207.46458	1649.81982	-1056.41211	-239.91037	1618.15552	-920.39264	-253.65137	1512.89758	-989.81726	-299.81543	1238.60339	-985.01593	-111.02723	1451.56848	-997.91339	-54.0587	1279.84973	-996.28387	-307.50433	1336.81323	-932.12158	-175.17599	1499.23364	-1167.14343	-165.42706	1303.09888	-1256.95593	-143.53705	1162.7229	-1275.69666	-90.32909	1039.93286	-1287.11719	4.65255	942.82483	-1249.89868	-37.19076	927.95294	-1286.02966	4.76963	875.4787	-1284.83154	-180.14545	1474.58032	-802.26587	-218.14444	1284.26025	-725.24164	-212.9693	1137.62634	-713.02789	-194.07867	1019.90088	-691.77148	-152.92957	889.88843	-707.1156	-202.73203	890.30652	-677.98053	-172.35474	823.66895	-673.92542	-78.1502	971.65369	-1124.15051	-51.47592	978.69019	-875.18256	-278.80566	1020.20209	-1030.83643	-272.1409	1025.53613	-914.15692	-174.9351	661.44769	-1187.50513	-215.00287	477.84552	-1177.82666	-366.2312	366.70209	-1170.66699	-501.41971	191.72823	-1141.97852	-531.46362	190.2782	-1082.47327	-433.83545	53.4709	-1175.0332	-74.61758	676.44104	-797.04089	-41.98473	469.95877	-840.55072	-67.369	281.83755	-835.54279	-72.85082	90.14753	-874.74951	-103.9332	37.05559	-932.37427	80.80743	38.25665	-857.58154	-229.16148	1785.85291	-950.19055	NaN	NaN	NaN	NaN	NaN	NaN
